<?xml version="1.0" encoding="UTF-8"?>
<svg width="140" height="160" xmlns="http://www.w3.org/2000/svg" xmlns:svg="http://www.w3.org/2000/svg">
 <!-- Created with SVG-edit - http://svg-edit.googlecode.com/ -->

 <g>
  <title>Layer 1</title>
  <g fill="none" fill-rule="evenodd" id="Website">
   <g fill="#FFFFFF" id="svg_2">
    <g id="svg_3">
     <g id="svg_4">
      <path d="m71.36087,4.24682c0,1.3084 -1.05685,2.36793 -2.36194,2.36793c-1.30511,0 -2.36301,-1.05953 -2.36301,-2.36793c0,-1.30944 1.05789,-2.36897 2.36301,-2.36897c1.30508,0 2.36194,1.05953 2.36194,2.36897" id="svg_5"/>
      <path d="m58.23895,11.88648c0,1.30841 -1.05685,2.36794 -2.36197,2.36794c-1.30612,0 -2.36298,-1.05953 -2.36298,-2.36794c0,-1.30737 1.05685,-2.36897 2.36298,-2.36897c1.30511,0 2.36197,1.0616 2.36197,2.36897" id="svg_6"/>
      <path d="m84.48526,11.88648c0,1.30841 -1.0589,2.36794 -2.36401,2.36794c-1.30611,0 -2.36298,-1.05953 -2.36298,-2.36794c0,-1.30737 1.05685,-2.36897 2.36298,-2.36897c1.30511,0 2.36401,1.0616 2.36401,2.36897" id="svg_7"/>
      <path d="m45.11716,19.52676c0,1.30841 -1.05688,2.36794 -2.36301,2.36794c-1.30408,0 -2.36301,-1.05953 -2.36301,-2.36794c0,-1.30944 1.05893,-2.36897 2.36301,-2.36897c1.30612,0 2.36301,1.05953 2.36301,2.36897" id="svg_8"/>
      <path d="m71.36087,19.5247c0,1.31047 -1.05685,2.37 -2.36194,2.37c-1.30511,0 -2.36301,-1.05953 -2.36301,-2.37c0,-1.30738 1.05789,-2.36691 2.36301,-2.36691c1.30508,0 2.36194,1.05953 2.36194,2.36691" id="svg_9"/>
      <path d="m84.48526,27.16446c0,1.31047 -1.0589,2.37 -2.36401,2.37c-1.30408,0 -2.36298,-1.05953 -2.36298,-2.37c0,-1.30737 1.0589,-2.36897 2.36298,-2.36897c1.30511,0 2.36401,1.0616 2.36401,2.36897" id="svg_10"/>
      <path d="m110.73004,27.16446c0,1.31047 -1.05685,2.37 -2.36197,2.37c-1.30612,0 -2.36298,-1.05953 -2.36298,-2.37c0,-1.30737 1.05685,-2.36897 2.36298,-2.36897c1.30511,0 2.36197,1.0616 2.36197,2.36897" id="svg_11"/>
      <path d="m31.99625,27.16642c0,1.30841 -1.05893,2.36794 -2.36298,2.36794c-1.30719,0 -2.36404,-1.05953 -2.36404,-2.36794c0,-1.30943 1.05685,-2.36896 2.36404,-2.36896c1.30405,0 2.36298,1.05953 2.36298,2.36896" id="svg_12"/>
      <path d="m58.23895,27.16446c0,1.31047 -1.05685,2.37 -2.36197,2.37c-1.30612,0 -2.36298,-1.05953 -2.36298,-2.37c0,-1.30737 1.05685,-2.36897 2.36298,-2.36897c1.30511,0 2.36197,1.0616 2.36197,2.36897" id="svg_13"/>
      <path d="m71.36087,34.80567c0,1.30944 -1.05685,2.36897 -2.35989,2.36897c-1.30716,0 -2.36504,-1.05953 -2.36504,-2.36897c0,-1.3084 1.05788,-2.37 2.36504,-2.37c1.30305,0 2.35989,1.0616 2.35989,2.37" id="svg_14"/>
      <path d="m123.853,34.80567c0,1.30944 -1.05685,2.36897 -2.36298,2.36897c-1.30511,0 -2.36404,-1.05953 -2.36404,-2.36897c0,-1.3084 1.05894,-2.37 2.36404,-2.37c1.30612,0 2.36298,1.0616 2.36298,2.37" id="svg_15"/>
      <path d="m18.87329,34.80567c0,1.30944 -1.05685,2.36897 -2.36401,2.36897c-1.30408,0 -2.36095,-1.05953 -2.36095,-2.36897c0,-1.3084 1.05687,-2.37 2.36095,-2.37c1.30716,0 2.36401,1.0616 2.36401,2.37" id="svg_16"/>
      <path d="m45.11716,34.80567c0,1.30944 -1.05688,2.36897 -2.36301,2.36897c-1.30408,0 -2.36301,-1.05953 -2.36301,-2.36897c0,-1.3084 1.05893,-2.37 2.36301,-2.37c1.30612,0 2.36301,1.0616 2.36301,2.37" id="svg_17"/>
      <path d="m58.23895,42.44533c0,1.30738 -1.05685,2.36897 -2.36197,2.36897c-1.30612,0 -2.36298,-1.06159 -2.36298,-2.36897c0,-1.3084 1.05685,-2.37 2.36298,-2.37c1.30511,0 2.36197,1.0616 2.36197,2.37" id="svg_18"/>
      <path d="m84.48526,42.44533c0,1.30738 -1.0589,2.36897 -2.36401,2.36897c-1.30611,0 -2.36298,-1.06159 -2.36298,-2.36897c0,-1.3084 1.05685,-2.37 2.36298,-2.37c1.30511,0 2.36401,1.0616 2.36401,2.37" id="svg_19"/>
      <path d="m110.73004,42.44533c0,1.30738 -1.05685,2.36897 -2.36401,2.36897c-1.30408,0 -2.36093,-1.06159 -2.36093,-2.36897c0,-1.3084 1.05685,-2.37 2.36093,-2.37c1.30716,0 2.36401,1.0616 2.36401,2.37" id="svg_20"/>
      <path d="m136.97586,42.44533c0,1.30738 -1.05792,2.36897 -2.36301,2.36897c-1.30508,0 -2.36301,-1.06159 -2.36301,-2.36897c0,-1.3084 1.05791,-2.37 2.36301,-2.37c1.30507,0 2.36301,1.0616 2.36301,2.37" id="svg_21"/>
      <path d="m5.75148,42.44533c0,1.30738 -1.05893,2.36897 -2.36299,2.36897c-1.30511,0 -2.36403,-1.06159 -2.36403,-2.36897c0,-1.3084 1.05891,-2.37 2.36403,-2.37c1.30406,0 2.36299,1.0616 2.36299,2.37" id="svg_22"/>
      <path d="m31.99417,42.44533c0,1.30738 -1.05685,2.36897 -2.3609,2.36897c-1.30719,0 -2.36404,-1.06159 -2.36404,-2.36897c0,-1.3084 1.05685,-2.37 2.36404,-2.37c1.30405,0 2.3609,1.0616 2.3609,2.37" id="svg_23"/>
      <path d="m45.11716,50.08511c0,1.30737 -1.05789,2.36896 -2.36301,2.36896c-1.30408,0 -2.36301,-1.06159 -2.36301,-2.36896c0,-1.31047 1.05893,-2.37 2.36301,-2.37c1.30511,0 2.36301,1.05953 2.36301,2.37" id="svg_24"/>
      <path d="m71.36087,50.08511c0,1.30737 -1.05685,2.36896 -2.36194,2.36896c-1.30511,0 -2.36301,-1.06159 -2.36301,-2.36896c0,-1.31047 1.05789,-2.37 2.36301,-2.37c1.30508,0 2.36194,1.05953 2.36194,2.37" id="svg_25"/>
      <path d="m123.853,50.08511c0,1.30737 -1.05685,2.36896 -2.36298,2.36896c-1.30511,0 -2.36404,-1.06159 -2.36404,-2.36896c0,-1.31047 1.05894,-2.37 2.36404,-2.37c1.30612,0 2.36298,1.05953 2.36298,2.37" id="svg_26"/>
      <path d="m18.87329,50.08511c0,1.30737 -1.05891,2.36896 -2.36401,2.36896c-1.30408,0 -2.36301,-1.06159 -2.36301,-2.36896c0,-1.31047 1.05893,-2.37 2.36301,-2.37c1.3051,0 2.36401,1.05953 2.36401,2.37" id="svg_27"/>
      <path d="m58.23895,57.70008c0,1.3115 -1.05685,2.37 -2.36197,2.37c-1.30612,0 -2.36298,-1.0585 -2.36298,-2.37c0,-1.30737 1.05685,-2.3669 2.36298,-2.3669c1.30511,0 2.36197,1.05952 2.36197,2.3669" id="svg_28"/>
      <path d="m84.48526,57.70008c0,1.3115 -1.0589,2.37 -2.36401,2.37c-1.30611,0 -2.36298,-1.0585 -2.36298,-2.37c0,-1.30737 1.05685,-2.3669 2.36298,-2.3669c1.30511,0 2.36401,1.05952 2.36401,2.3669" id="svg_29"/>
      <path d="m110.73004,57.70008c0,1.3115 -1.05685,2.37 -2.36401,2.37c-1.30408,0 -2.36093,-1.0585 -2.36093,-2.37c0,-1.30737 1.05685,-2.3669 2.36093,-2.3669c1.30716,0 2.36401,1.05952 2.36401,2.3669" id="svg_30"/>
      <path d="m136.97586,57.70008c0,1.3115 -1.05792,2.37 -2.36301,2.37c-1.30508,0 -2.36301,-1.0585 -2.36301,-2.37c0,-1.30737 1.05791,-2.3669 2.36301,-2.3669c1.30507,0 2.36301,1.05952 2.36301,2.3669" id="svg_31"/>
      <path d="m5.75148,57.70008c0,1.3115 -1.05893,2.37 -2.36299,2.37c-1.30511,0 -2.36403,-1.0585 -2.36403,-2.37c0,-1.30737 1.05891,-2.3669 2.36403,-2.3669c1.30406,0 2.36299,1.05952 2.36299,2.3669" id="svg_32"/>
      <path d="m31.99417,57.70008c0,1.3115 -1.05685,2.37 -2.3609,2.37c-1.30719,0 -2.36404,-1.0585 -2.36404,-2.37c0,-1.30737 1.05685,-2.3669 2.36404,-2.3669c1.30405,0 2.3609,1.05952 2.3609,2.3669" id="svg_33"/>
      <path d="m45.11716,65.34026c0,1.3084 -1.05789,2.37 -2.36301,2.37c-1.30408,0 -2.36301,-1.0616 -2.36301,-2.37c0,-1.30944 1.05893,-2.36897 2.36301,-2.36897c1.30511,0 2.36301,1.05953 2.36301,2.36897" id="svg_34"/>
      <path d="m71.36087,65.34026c0,1.3084 -1.05685,2.37 -2.36194,2.37c-1.30511,0 -2.36301,-1.0616 -2.36301,-2.37c0,-1.30944 1.05789,-2.36897 2.36301,-2.36897c1.30508,0 2.36194,1.05953 2.36194,2.36897" id="svg_35"/>
      <path d="m123.853,65.34026c0,1.3084 -1.05685,2.37 -2.36298,2.37c-1.30511,0 -2.36404,-1.0616 -2.36404,-2.37c0,-1.30944 1.05894,-2.36897 2.36404,-2.36897c1.30612,0 2.36298,1.05953 2.36298,2.36897" id="svg_36"/>
      <path d="m18.87329,65.34026c0,1.3084 -1.05891,2.37 -2.36401,2.37c-1.30408,0 -2.36301,-1.0616 -2.36301,-2.37c0,-1.30944 1.05893,-2.36897 2.36301,-2.36897c1.3051,0 2.36401,1.05953 2.36401,2.36897" id="svg_37"/>
      <path d="m58.23895,73.01885c0,1.30737 -1.05685,2.36896 -2.36197,2.36896c-1.30612,0 -2.36298,-1.06158 -2.36298,-2.36896c0,-1.30944 1.05685,-2.37103 2.36298,-2.37103c1.30511,0 2.36197,1.06159 2.36197,2.37103" id="svg_38"/>
      <path d="m84.48526,73.01885c0,1.30737 -1.0589,2.36896 -2.36401,2.36896c-1.30611,0 -2.36298,-1.06158 -2.36298,-2.36896c0,-1.30944 1.05685,-2.37103 2.36298,-2.37103c1.30511,0 2.36401,1.06159 2.36401,2.37103" id="svg_39"/>
      <path d="m110.73004,73.01885c0,1.30737 -1.05685,2.36896 -2.36401,2.36896c-1.30408,0 -2.36093,-1.06158 -2.36093,-2.36896c0,-1.30944 1.05685,-2.37103 2.36093,-2.37103c1.30716,0 2.36401,1.06159 2.36401,2.37103" id="svg_40"/>
      <path d="m136.97586,73.01885c0,1.30737 -1.05792,2.36896 -2.36301,2.36896c-1.30508,0 -2.36301,-1.06158 -2.36301,-2.36896c0,-1.30944 1.05791,-2.37103 2.36301,-2.37103c1.30507,0 2.36301,1.06159 2.36301,2.37103" id="svg_41"/>
      <path d="m5.75148,73.01885c0,1.30737 -1.05893,2.36896 -2.36299,2.36896c-1.30511,0 -2.36403,-1.06158 -2.36403,-2.36896c0,-1.30944 1.05891,-2.37103 2.36403,-2.37103c1.30406,0 2.36299,1.06159 2.36299,2.37103" id="svg_42"/>
      <path d="m31.99417,73.01885c0,1.30737 -1.05685,2.36896 -2.3609,2.36896c-1.30719,0 -2.36404,-1.06158 -2.36404,-2.36896c0,-1.30944 1.05685,-2.37103 2.36404,-2.37103c1.30405,0 2.3609,1.06159 2.3609,2.37103" id="svg_43"/>
      <path d="m45.11716,80.65604c0,1.30737 -1.05789,2.36691 -2.36301,2.36691c-1.30408,0 -2.36301,-1.05952 -2.36301,-2.36691c0,-1.3084 1.05893,-2.36794 2.36301,-2.36794c1.30511,0 2.36301,1.05953 2.36301,2.36794" id="svg_44"/>
      <path d="m71.36087,80.65604c0,1.30737 -1.05685,2.36691 -2.36194,2.36691c-1.30511,0 -2.36301,-1.05952 -2.36301,-2.36691c0,-1.3084 1.05789,-2.36794 2.36301,-2.36794c1.30508,0 2.36194,1.05953 2.36194,2.36794" id="svg_45"/>
      <path d="m123.853,80.65604c0,1.30737 -1.05685,2.36691 -2.36298,2.36691c-1.30511,0 -2.36404,-1.05952 -2.36404,-2.36691c0,-1.3084 1.05894,-2.36794 2.36404,-2.36794c1.30612,0 2.36298,1.05953 2.36298,2.36794" id="svg_46"/>
      <path d="m18.87329,80.65604c0,1.30737 -1.05891,2.36691 -2.36401,2.36691c-1.30408,0 -2.36301,-1.05952 -2.36301,-2.36691c0,-1.3084 1.05893,-2.36794 2.36301,-2.36794c1.3051,0 2.36401,1.05953 2.36401,2.36794" id="svg_47"/>
      <path d="m66.63901,157.05316c0,-1.30841 1.05893,-2.37 2.36401,-2.37c1.30307,0 2.36197,1.06157 2.36197,2.37c0,1.30945 -1.0589,2.36896 -2.36197,2.36896c-1.30508,0 -2.36401,-1.05951 -2.36401,-2.36896" id="svg_48"/>
      <path d="m79.76196,149.41299c0,-1.3105 1.05685,-2.37001 2.36301,-2.37001c1.30511,0 2.36194,1.05951 2.36194,2.37001c0,1.30737 -1.05682,2.36896 -2.36194,2.36896c-1.30615,0 -2.36301,-1.06158 -2.36301,-2.36896" id="svg_49"/>
      <path d="m53.51617,149.41299c0,-1.30841 1.0589,-2.37001 2.36298,-2.37001c1.30716,0 2.36404,1.06157 2.36404,2.37001c0,1.30737 -1.05688,2.36896 -2.36404,2.36896c-1.30408,0 -2.36298,-1.06158 -2.36298,-2.36896" id="svg_50"/>
      <path d="m40.39426,141.77374c0,-1.30945 1.05685,-2.37103 2.36194,-2.37103c1.30615,0 2.36301,1.06158 2.36301,2.37103c0,1.30737 -1.05685,2.36896 -2.36301,2.36896c-1.30508,0 -2.36194,-1.06158 -2.36194,-2.36896" id="svg_51"/>
      <path d="m66.63901,141.77374c0,-1.30945 1.05685,-2.37103 2.36401,-2.37103c1.30307,0 2.36197,1.06158 2.36197,2.37103c0,1.30737 -1.0589,2.36896 -2.36197,2.36896c-1.30716,0 -2.36401,-1.06158 -2.36401,-2.36896" id="svg_52"/>
      <path d="m53.51617,134.13358c0,-1.31049 1.0589,-2.37003 2.36298,-2.37003c1.30716,0 2.36404,1.05954 2.36404,2.37003c0,1.30737 -1.05688,2.36896 -2.36404,2.36896c-1.30408,0 -2.36298,-1.06157 -2.36298,-2.36896" id="svg_53"/>
      <path d="m27.27139,134.13358c0,-1.31049 1.05685,-2.37003 2.36301,-2.37003c1.30508,0 2.36401,1.05954 2.36401,2.37003c0,1.30737 -1.05893,2.36896 -2.36401,2.36896c-1.30615,0 -2.36301,-1.06157 -2.36301,-2.36896" id="svg_54"/>
      <path d="m106.00726,134.1315c0,-1.30841 1.05685,-2.36795 2.36298,-2.36795c1.30408,0 2.36093,1.05954 2.36093,2.36795c0,1.30945 -1.05685,2.37103 -2.36093,2.37103c-1.30612,0 -2.36298,-1.06158 -2.36298,-2.37103" id="svg_55"/>
      <path d="m79.76196,134.13358c0,-1.31049 1.05685,-2.37003 2.36301,-2.37003c1.30511,0 2.36194,1.05954 2.36194,2.37003c0,1.30737 -1.05682,2.36896 -2.36194,2.36896c-1.30615,0 -2.36301,-1.06157 -2.36301,-2.36896" id="svg_56"/>
      <path d="m66.63901,126.49328c0,-1.30841 1.05685,-2.37 2.36401,-2.37c1.30307,0 2.36197,1.06158 2.36197,2.37c0,1.30737 -1.0589,2.36897 -2.36197,2.36897c-1.30716,0 -2.36401,-1.06158 -2.36401,-2.36897" id="svg_57"/>
      <path d="m40.39426,126.49328c0,-1.30841 1.05685,-2.37 2.36194,-2.37c1.30615,0 2.36301,1.06158 2.36301,2.37c0,1.30737 -1.05685,2.36897 -2.36301,2.36897c-1.30508,0 -2.36194,-1.06158 -2.36194,-2.36897" id="svg_58"/>
      <path d="m14.14845,126.49328c0,-1.30841 1.05788,-2.37 2.36299,-2.37c1.3051,0 2.36298,1.06158 2.36298,2.37c0,1.30737 -1.05788,2.36897 -2.36298,2.36897c-1.30511,0 -2.36299,-1.06158 -2.36299,-2.36897" id="svg_59"/>
      <path d="m119.12814,126.49328c0,-1.31049 1.05893,-2.37 2.36298,-2.37c1.30511,0 2.36404,1.05951 2.36404,2.37c0,1.30737 -1.05894,2.36897 -2.36404,2.36897c-1.30405,0 -2.36298,-1.06158 -2.36298,-2.36897" id="svg_60"/>
      <path d="m79.76196,118.85413c0,-1.30943 1.05685,-2.37103 2.36301,-2.37103c1.30511,0 2.36194,1.0616 2.36194,2.37103c0,1.30737 -1.05682,2.36897 -2.36194,2.36897c-1.30615,0 -2.36301,-1.0616 -2.36301,-2.36897" id="svg_61"/>
      <path d="m53.51617,118.85413c0,-1.30943 1.0589,-2.37103 2.36298,-2.37103c1.30716,0 2.36404,1.0616 2.36404,2.37103c0,1.30737 -1.05688,2.36897 -2.36404,2.36897c-1.30408,0 -2.36298,-1.0616 -2.36298,-2.36897" id="svg_62"/>
      <path d="m27.27139,118.85413c0,-1.30943 1.05685,-2.37103 2.36301,-2.37103c1.30508,0 2.36401,1.0616 2.36401,2.37103c0,1.30737 -1.05893,2.36897 -2.36401,2.36897c-1.30615,0 -2.36301,-1.0616 -2.36301,-2.36897" id="svg_63"/>
      <path d="m1.02405,118.85413c0,-1.30943 1.05891,-2.37103 2.36403,-2.37103c1.30408,0 2.36299,1.0616 2.36299,2.37103c0,1.30737 -1.05891,2.36897 -2.36299,2.36897c-1.30511,0 -2.36403,-1.0616 -2.36403,-2.36897" id="svg_64"/>
      <path d="m132.25101,118.85413c0,-1.31152 1.05682,-2.37103 2.36194,-2.37103c1.30615,0 2.36302,1.05952 2.36302,2.37103c0,1.30737 -1.05685,2.36691 -2.36302,2.36691c-1.3051,0 -2.36194,-1.05954 -2.36194,-2.36691" id="svg_65"/>
      <path d="m106.00726,118.85413c0,-1.30943 1.05685,-2.37103 2.36298,-2.37103c1.30408,0 2.36093,1.0616 2.36093,2.37103c0,1.30737 -1.05685,2.36897 -2.36093,2.36897c-1.30612,0 -2.36298,-1.0616 -2.36298,-2.36897" id="svg_66"/>
      <path d="m66.63901,111.21385c0,-1.3084 1.05893,-2.37 2.36401,-2.37c1.30511,0 2.36197,1.0616 2.36197,2.37c0,1.30944 -1.05685,2.36897 -2.36197,2.36897c-1.30508,0 -2.36401,-1.05952 -2.36401,-2.36897" id="svg_67"/>
      <path d="m40.39426,111.21385c0,-1.3084 1.05685,-2.37 2.36401,-2.37c1.30408,0 2.36301,1.0616 2.36301,2.37c0,1.30944 -1.05893,2.36897 -2.36301,2.36897c-1.30716,0 -2.36401,-1.05952 -2.36401,-2.36897" id="svg_68"/>
      <path d="m14.14845,111.21385c0,-1.3084 1.05788,-2.37 2.36299,-2.37c1.3051,0 2.36298,1.0616 2.36298,2.37c0,1.30944 -1.05788,2.36897 -2.36298,2.36897c-1.30511,0 -2.36299,-1.05952 -2.36299,-2.36897" id="svg_69"/>
      <path d="m119.1301,111.21385c0,-1.3084 1.05685,-2.37 2.36093,-2.37c1.30511,0 2.36404,1.0616 2.36404,2.37c0,1.30944 -1.05893,2.36897 -2.36404,2.36897c-1.30408,0 -2.36093,-1.05952 -2.36093,-2.36897" id="svg_70"/>
      <path d="m79.76196,103.59681c0,-1.30943 1.05685,-2.37 2.36301,-2.37c1.30511,0 2.36194,1.06057 2.36194,2.37c0,1.30944 -1.05682,2.36897 -2.36194,2.36897c-1.30615,0 -2.36301,-1.05952 -2.36301,-2.36897" id="svg_71"/>
      <path d="m53.51617,103.59681c0,-1.30943 1.0589,-2.37 2.36298,-2.37c1.30716,0 2.36404,1.06057 2.36404,2.37c0,1.30944 -1.05688,2.36897 -2.36404,2.36897c-1.30408,0 -2.36298,-1.05952 -2.36298,-2.36897" id="svg_72"/>
      <path d="m27.27139,103.59681c0,-1.30943 1.05685,-2.37 2.36301,-2.37c1.30508,0 2.36401,1.06057 2.36401,2.37c0,1.30944 -1.05893,2.36897 -2.36401,2.36897c-1.30615,0 -2.36301,-1.05952 -2.36301,-2.36897" id="svg_73"/>
      <path d="m1.02405,103.59681c0,-1.30943 1.05891,-2.37 2.36403,-2.37c1.30408,0 2.36299,1.06057 2.36299,2.37c0,1.30944 -1.05891,2.36897 -2.36299,2.36897c-1.30511,0 -2.36403,-1.05952 -2.36403,-2.36897" id="svg_74"/>
      <path d="m132.25101,103.59681c0,-1.30943 1.05682,-2.37 2.36194,-2.37c1.30615,0 2.36302,1.06057 2.36302,2.37c0,1.30944 -1.05685,2.36897 -2.36302,2.36897c-1.3051,0 -2.36194,-1.05952 -2.36194,-2.36897" id="svg_75"/>
      <path d="m106.00726,103.59681c0,-1.30943 1.05685,-2.37 2.36298,-2.37c1.30408,0 2.36093,1.06057 2.36093,2.37c0,1.30944 -1.05685,2.36897 -2.36093,2.36897c-1.30612,0 -2.36298,-1.05952 -2.36298,-2.36897" id="svg_76"/>
      <path d="m97.60822,19.5247c0,1.31047 -1.05891,2.37 -2.36298,2.37c-1.30508,0 -2.36404,-1.05953 -2.36404,-2.37c0,-1.30738 1.05896,-2.36691 2.36404,-2.36691c1.30408,0 2.36298,1.05953 2.36298,2.36691" id="svg_77"/>
      <path d="m97.60822,34.80567c0,1.30944 -1.05891,2.36897 -2.36298,2.36897c-1.30508,0 -2.36404,-1.05953 -2.36404,-2.36897c0,-1.3084 1.05896,-2.37 2.36404,-2.37c1.30408,0 2.36298,1.0616 2.36298,2.37" id="svg_78"/>
      <path d="m97.60617,50.08511c0,1.30737 -1.05685,2.36896 -2.36093,2.36896c-1.30716,0 -2.36404,-1.06159 -2.36404,-2.36896c0,-1.31047 1.05688,-2.37 2.36404,-2.37c1.30408,0 2.36093,1.05953 2.36093,2.37" id="svg_79"/>
      <path d="m97.60617,65.34026c0,1.3084 -1.05685,2.37 -2.36093,2.37c-1.30716,0 -2.36404,-1.0616 -2.36404,-2.37c0,-1.30944 1.05688,-2.36897 2.36404,-2.36897c1.30408,0 2.36093,1.05953 2.36093,2.36897" id="svg_80"/>
      <path d="m97.60617,80.65604c0,1.30737 -1.05685,2.36691 -2.36093,2.36691c-1.30716,0 -2.36404,-1.05952 -2.36404,-2.36691c0,-1.3084 1.05688,-2.36794 2.36404,-2.36794c1.30408,0 2.36093,1.05953 2.36093,2.36794" id="svg_81"/>
      <path d="m92.88327,141.77374c0,-1.31149 1.05893,-2.37103 2.36401,-2.37103c1.30615,0 2.36301,1.05954 2.36301,2.37103c0,1.30737 -1.05685,2.36896 -2.36301,2.36896c-1.30508,0 -2.36401,-1.06158 -2.36401,-2.36896" id="svg_82"/>
      <path d="m92.88327,126.49328c0,-1.30841 1.05893,-2.37 2.36401,-2.37c1.30615,0 2.36301,1.06158 2.36301,2.37c0,1.30737 -1.05685,2.36897 -2.36301,2.36897c-1.30508,0 -2.36401,-1.06158 -2.36401,-2.36897" id="svg_83"/>
      <path d="m92.88535,111.21385c0,-1.3084 1.05685,-2.37 2.36194,-2.37c1.30614,0 2.36301,1.0616 2.36301,2.37c0,1.30944 -1.05685,2.36897 -2.36301,2.36897c-1.30508,0 -2.36194,-1.05952 -2.36194,-2.36897" id="svg_84"/>
      <path d="m92.88535,95.95869c0,-1.31047 1.05685,-2.36999 2.36194,-2.36999c1.30614,0 2.36301,1.05952 2.36301,2.36999c0,1.30737 -1.05685,2.36691 -2.36301,2.36691c-1.30508,0 -2.36194,-1.05954 -2.36194,-2.36691" id="svg_85"/>
      <path d="m66.63901,95.95869c0,-1.31047 1.05893,-2.36999 2.36401,-2.36999c1.30511,0 2.36197,1.05952 2.36197,2.36999c0,1.30737 -1.05685,2.36691 -2.36197,2.36691c-1.30508,0 -2.36401,-1.05954 -2.36401,-2.36691" id="svg_86"/>
      <path d="m40.39426,95.95869c0,-1.31047 1.05685,-2.36999 2.36401,-2.36999c1.30408,0 2.36301,1.05952 2.36301,2.36999c0,1.30737 -1.05893,2.36691 -2.36301,2.36691c-1.30716,0 -2.36401,-1.05954 -2.36401,-2.36691" id="svg_87"/>
      <path d="m14.14845,95.95869c0,-1.31047 1.05788,-2.36999 2.36299,-2.36999c1.3051,0 2.36298,1.05952 2.36298,2.36999c0,1.30737 -1.05788,2.36691 -2.36298,2.36691c-1.30511,0 -2.36299,-1.05954 -2.36299,-2.36691" id="svg_88"/>
      <path d="m119.1301,95.95869c0,-1.31047 1.05685,-2.36999 2.36093,-2.36999c1.30511,0 2.36404,1.05952 2.36404,2.36999c0,1.30737 -1.05893,2.36691 -2.36404,2.36691c-1.30408,0 -2.36093,-1.05954 -2.36093,-2.36691" id="svg_89"/>
      <path d="m79.76196,88.28011c0,-1.30944 1.05685,-2.36897 2.36301,-2.36897c1.30511,0 2.36194,1.05953 2.36194,2.36897c0,1.30943 -1.05682,2.36897 -2.36194,2.36897c-1.30615,0 -2.36301,-1.05952 -2.36301,-2.36897" id="svg_90"/>
      <path d="m53.51617,88.28011c0,-1.30944 1.0589,-2.36897 2.36298,-2.36897c1.30716,0 2.36404,1.05953 2.36404,2.36897c0,1.30943 -1.05688,2.36897 -2.36404,2.36897c-1.30408,0 -2.36298,-1.05952 -2.36298,-2.36897" id="svg_91"/>
      <path d="m27.27139,88.28011c0,-1.30944 1.05685,-2.36897 2.36301,-2.36897c1.30508,0 2.36401,1.05953 2.36401,2.36897c0,1.30943 -1.05893,2.36897 -2.36401,2.36897c-1.30615,0 -2.36301,-1.05952 -2.36301,-2.36897" id="svg_92"/>
      <path d="m1.02405,88.28011c0,-1.30944 1.05891,-2.36897 2.36403,-2.36897c1.30408,0 2.36299,1.05953 2.36299,2.36897c0,1.30943 -1.05891,2.36897 -2.36299,2.36897c-1.30511,0 -2.36403,-1.05952 -2.36403,-2.36897" id="svg_93"/>
      <path d="m132.25101,88.28011c0,-1.30944 1.05682,-2.36897 2.36194,-2.36897c1.30615,0 2.36302,1.05953 2.36302,2.36897c0,1.30943 -1.05685,2.36897 -2.36302,2.36897c-1.3051,0 -2.36194,-1.05952 -2.36194,-2.36897" id="svg_94"/>
      <path d="m106.00726,88.28011c0,-1.30944 1.05685,-2.36897 2.36298,-2.36897c1.30408,0 2.36093,1.05953 2.36093,2.36897c0,1.30943 -1.05685,2.36897 -2.36093,2.36897c-1.30612,0 -2.36298,-1.05952 -2.36298,-2.36897" id="svg_95"/>
     </g>
    </g>
   </g>
  </g>
  <rect id="svg_1" height="1" width="0" y="-115.35001" x="433" stroke-linecap="null" stroke-linejoin="null" stroke-dasharray="null" stroke-width="5" stroke="#000000" fill="#FF0000"/>
  <rect id="svg_96" height="16" width="1" y="-128.35001" x="2.5" stroke-linecap="null" stroke-linejoin="null" stroke-dasharray="null" stroke-width="5" stroke="#000000" fill="#FF0000"/>
  <rect id="svg_97" height="7" width="19" y="-188.35001" x="706" stroke-linecap="null" stroke-linejoin="null" stroke-dasharray="null" stroke-width="5" stroke="#000000" fill="#FF0000"/>
  <rect id="svg_98" height="1" width="4" y="-31.35001" x="-164" stroke-linecap="null" stroke-linejoin="null" stroke-dasharray="null" stroke-width="5" stroke="#000000" fill="#FF0000"/>
 </g>
</svg>